<svg xmlns="http://www.w3.org/2000/svg" xmlns:xlink="http://www.w3.org/1999/xlink" version="1.1" x="0px" y="0px" viewBox="0 0 100 125" style="enable-background:new 0 0 100 100;" xml:space="preserve"><style type="text/css">
	.st0{fill:#0E0F10;}
</style><g><path class="st0" d="M64.5,24h-29c-1.7,0-3,1.3-3,3v46c0,1.1,0.6,2.1,1.6,2.6c0.4,0.2,0.9,0.4,1.4,0.4c0.6,0,1.1-0.2,1.6-0.5   c0.1,0,0.1-0.1,0.2-0.1l12.7-10l12.7,10c0,0,0.1,0.1,0.2,0.1c0.9,0.6,2.1,0.6,3.1,0.1s1.6-1.5,1.6-2.6V27   C67.5,25.4,66.2,24,64.5,24z M63.5,70.9l-12.3-9.7c-0.7-0.6-1.8-0.6-2.5,0l-12.3,9.7V28h27V70.9z"/><path class="st0" d="M43.1,40.1h13.8c1.2,0,2.1-0.9,2.1-2.1s-0.9-2.1-2.1-2.1H43.1c-1.2,0-2.1,0.9-2.1,2.1S41.9,40.1,43.1,40.1z"/></g><text x="0" y="115" fill="#000000" font-size="5px" font-weight="bold" font-family="'Helvetica Neue', Helvetica, Arial-Unicode, Arial, Sans-serif">Created by Kiran Shastry</text><text x="0" y="120" fill="#000000" font-size="5px" font-weight="bold" font-family="'Helvetica Neue', Helvetica, Arial-Unicode, Arial, Sans-serif">from the Noun Project</text></svg>